<?xml version="1.0" encoding="UTF-8"?>
<svg version="1.1" xmlns="http://www.w3.org/2000/svg" width="100" height="100">
<path d="M0 0 C1.05968994 0.00572021 2.11937988 0.01144043 3.21118164 0.01733398 C15.77465276 0.30350247 24.8838804 3.98032736 34.25 12.5 C34.87519531 13.04527344 35.50039062 13.59054687 36.14453125 14.15234375 C44.65666903 22.0339528 50.11388972 32.54880176 50.71875 44.171875 C50.75294526 46.19765486 50.7626697 48.22397117 50.75 50.25 C50.74427979 51.30968994 50.73855957 52.36937988 50.73266602 53.46118164 C50.44649753 66.02465276 46.76967264 75.1338804 38.25 84.5 C37.43208984 85.43779297 37.43208984 85.43779297 36.59765625 86.39453125 C28.7160472 94.90666903 18.20119824 100.36388972 6.578125 100.96875 C4.55234514 101.00294526 2.52602883 101.0126697 0.5 101 C-0.55968994 100.99427979 -1.61937988 100.98855957 -2.71118164 100.98266602 C-15.27465276 100.69649753 -24.3838804 97.01967264 -33.75 88.5 C-34.37519531 87.95472656 -35.00039063 87.40945312 -35.64453125 86.84765625 C-44.15666903 78.9660472 -49.61388972 68.45119824 -50.21875 56.828125 C-50.25294526 54.80234514 -50.2626697 52.77602883 -50.25 50.75 C-50.24427979 49.69031006 -50.23855957 48.63062012 -50.23266602 47.53881836 C-49.94649753 34.97534724 -46.26967264 25.8661196 -37.75 16.5 C-37.20472656 15.87480469 -36.65945312 15.24960938 -36.09765625 14.60546875 C-26.25497215 3.97536992 -14.17368884 -0.08863464 0 0 Z " fill="#F0B90D" transform="translate(49.75,-0.5)"/>
<path d="M0 0 C1.15126667 0.72055749 2.29675276 1.45040178 3.4375 2.1875 C6.81602604 4.35798666 6.81602604 4.35798666 10.125 3.4375 C13.01455483 2.05709973 13.01455483 2.05709973 15.625 0.3125 C18 -1 18 -1 20.0625 -0.8125 C22.0820861 0.0344232 24.04122345 1.02061173 26 2 C26 4.97 26 7.94 26 11 C24.54462432 11.83848804 23.08559627 12.67063934 21.625 13.5 C20.81289063 13.9640625 20.00078125 14.428125 19.1640625 14.90625 C17 16 17 16 15 16 C15.06960937 16.96421875 15.13921875 17.9284375 15.2109375 18.921875 C15.64094955 28.95548961 15.64094955 28.95548961 13.83984375 31.890625 C12.3125 33 12.3125 33 9 34 C5.72603721 33.2386133 3.80935535 31.87290357 1 30 C0.70703125 26.7421875 0.70703125 26.7421875 0.8125 22.875 C0.83957031 21.59367187 0.86664063 20.31234375 0.89453125 18.9921875 C0.92933594 18.00476563 0.96414062 17.01734375 1 16 C0.24332031 15.70351563 -0.51335938 15.40703125 -1.29296875 15.1015625 C-4.28156056 13.88542557 -7.12856041 12.46910863 -10 11 C-10.28782447 7.94906061 -10.43064949 5.04146202 -10 2 C-6.68659819 -1.21873319 -4.26618918 -1.52363899 0 0 Z " fill="#FEFBF4" transform="translate(42,37)"/>
<path d="M0 0 C5.875 1.875 5.875 1.875 7 3 C7.07271741 5.35313555 7.08370868 7.70833668 7.0625 10.0625 C7.05347656 11.35285156 7.04445313 12.64320312 7.03515625 13.97265625 C7.02355469 14.97167969 7.01195312 15.97070312 7 17 C7.75667969 17.29519531 8.51335938 17.59039062 9.29296875 17.89453125 C12.66531617 19.27169477 15.22614573 20.61319516 18 23 C18.375 26.75 18.375 26.75 18 30 C15.99731014 29.34145784 13.99792357 28.67286392 12 28 C10.94039062 27.67386719 9.88078125 27.34773438 8.7890625 27.01171875 C4.93898653 25.40039066 2.7324806 24.20090585 0 21 C-1.55340308 14.16782538 -0.72405277 6.90727782 0 0 Z " fill="#FDF9ED" transform="translate(21,47)"/>
<path d="M0 0 C1.46804186 17.89254435 1.46804186 17.89254435 -1.7578125 22.5234375 C-4.12265964 24.03854295 -6.36564909 25.03825284 -9 26 C-10.32559449 26.76953987 -11.63986904 27.55918982 -12.9375 28.375 C-16 30 -16 30 -18 30 C-18.5625 26.875 -18.5625 26.875 -18 23 C-15.03147678 20.23537535 -11.19954713 17 -7 17 C-7.05800781 16.02417969 -7.11601563 15.04835938 -7.17578125 14.04296875 C-7.22089844 12.77066406 -7.26601562 11.49835937 -7.3125 10.1875 C-7.39951172 8.29064453 -7.39951172 8.29064453 -7.48828125 6.35546875 C-7 3 -7 3 -4.60546875 1.05078125 C-2 0 -2 0 0 0 Z " fill="#FDFAED" transform="translate(79,47)"/>
<path d="M0 0 C0.78375 0.49113281 1.5675 0.98226563 2.375 1.48828125 C3.40238281 2.02324219 4.42976563 2.55820312 5.48828125 3.109375 C6.54402344 3.70878906 7.59976563 4.30820312 8.6875 4.92578125 C9.75613281 5.52261719 10.82476562 6.11945312 11.92578125 6.734375 C13.13814453 7.60255859 13.13814453 7.60255859 14.375 8.48828125 C14.375 9.47828125 14.375 10.46828125 14.375 11.48828125 C11.375 13.48828125 11.375 13.48828125 9.125 13.36328125 C6.65919013 12.57870538 4.98793197 11.70487527 2.8125 10.36328125 C-0.26502956 8.32866387 -0.26502956 8.32866387 -2.625 8.48828125 C-4.59564557 9.43906389 -4.59564557 9.43906389 -6.28125 10.49609375 C-11.25346975 13.50892182 -11.25346975 13.50892182 -13.875 13.36328125 C-15.625 12.48828125 -15.625 12.48828125 -18.625 10.48828125 C-18.625 9.82828125 -18.625 9.16828125 -18.625 8.48828125 C-16.07421084 6.92363737 -13.51246037 5.38719165 -10.9375 3.86328125 C-10.21626953 3.41726562 -9.49503906 2.97125 -8.75195312 2.51171875 C-3.34042435 -0.65118391 -3.34042435 -0.65118391 0 0 Z " fill="#FEFAEF" transform="translate(51.625,16.51171875)"/>
<path d="M0 0 C0.721875 0.350625 1.44375 0.70125 2.1875 1.0625 C5.38276934 2.12758978 6.80681371 1.90064229 10 1 C10.763125 0.814375 11.52625 0.62875 12.3125 0.4375 C12.869375 0.293125 13.42625 0.14875 14 0 C14 2.64 14 5.28 14 8 C8.84051724 11.19396552 8.84051724 11.19396552 4.75 10.25 C3.1550534 9.52502427 1.56702124 8.78351062 0 8 C0 5.36 0 2.72 0 0 Z " fill="#FDF6E2" transform="translate(43,73)"/>
<path d="M0 0 C2.62585698 1.03442851 4.14492602 1.68947166 6.0625 3.8125 C6.69707239 6.60112546 6.75194508 9.03154505 6.0625 11.8125 C3.65390121 13.84079372 2.23205691 14.8125 -0.9375 14.8125 C-0.9375 12.1725 -0.9375 9.5325 -0.9375 6.8125 C-3.4125 5.8225 -3.4125 5.8225 -5.9375 4.8125 C-4.84108684 1.52326052 -3.78269658 -0.36606741 0 0 Z " fill="#FDF8E8" transform="translate(72.9375,29.1875)"/>
<path d="M0 0 C1.875 0.875 1.875 0.875 4.875 2.875 C4.875 3.535 4.875 4.195 4.875 4.875 C3.225 5.535 1.575 6.195 -0.125 6.875 C-0.125 9.515 -0.125 12.155 -0.125 14.875 C-6 13 -6 13 -7.125 11.875 C-7.41320584 8.94490733 -7.62205653 6.72479076 -7.125 3.875 C-3.53973397 -0.20821965 -3.53973397 -0.20821965 0 0 Z " fill="#FDF8E8" transform="translate(28.125,29.125)"/>
<path d="M0 0 C4.75 1.875 4.75 1.875 7 3 C7 5.64 7 8.28 7 11 C2.25 9.125 2.25 9.125 0 8 C0 5.36 0 2.72 0 0 Z " fill="#FDF6E0" transform="translate(32,53)"/>
<path d="M0 0 C0.43695709 5.33087655 0.43695709 5.33087655 0 8 C-2.40859879 10.02829372 -3.83044309 11 -7 11 C-7.43695709 5.66912345 -7.43695709 5.66912345 -7 3 C-4.59140121 0.97170628 -3.16955691 0 0 0 Z " fill="#FDF6E0" transform="translate(68,53)"/>
<path d="M0 0 C0.763125 0.4125 1.52625 0.825 2.3125 1.25 C2.9725 1.58 3.6325 1.91 4.3125 2.25 C4.3125 2.91 4.3125 3.57 4.3125 4.25 C2.125 6 2.125 6 -0.6875 7.25 C-3.375 6.5 -3.375 6.5 -5.6875 5.25 C-6.3475 4.92 -7.0075 4.59 -7.6875 4.25 C-7.6875 3.59 -7.6875 2.93 -7.6875 2.25 C-3.61422414 -1.00862069 -3.61422414 -1.00862069 0 0 Z " fill="#FDF7E4" transform="translate(51.6875,29.75)"/>
</svg>
