<?xml version="1.0" encoding="UTF-8"?>
<svg xmlns="http://www.w3.org/2000/svg" xmlns:xlink="http://www.w3.org/1999/xlink" width="100px" height="100px" viewBox="0 0 100 100" version="1.1">
<g id="surface1">
<path style=" stroke:none;fill-rule:nonzero;fill:rgb(76.078433%,65.098041%,20%);fill-opacity:1;" d="M 51.199219 32.949219 L 44.054688 32.949219 L 44.054688 47.035156 L 55.296875 47.035156 L 55.296875 52.929688 L 44.054688 52.929688 L 44.054688 67.015625 L 51.550781 67.015625 C 53.476562 67.015625 67.359375 67.234375 67.335938 50.628906 C 67.316406 34.027344 53.871094 32.949219 51.199219 32.949219 Z M 51.199219 32.949219 "/>
<path style=" stroke:none;fill-rule:nonzero;fill:rgb(76.078433%,65.098041%,20%);fill-opacity:1;" d="M 50 0 C 22.386719 0 0 22.386719 0 50 C 0 77.613281 22.386719 100 50 100 C 77.613281 100 100 77.613281 100 50 C 100 22.386719 77.613281 0 50 0 Z M 51.964844 77.003906 L 33.855469 77.003906 L 33.855469 52.933594 L 27.472656 52.933594 L 27.472656 47.035156 L 33.855469 47.035156 L 33.855469 22.960938 L 49.398438 22.960938 C 53.074219 22.960938 77.425781 22.195312 77.425781 50.433594 C 77.425781 79.140625 51.964844 77.003906 51.964844 77.003906 Z M 51.964844 77.003906 "/>
</g>
</svg>
