<?xml version="1.0" encoding="UTF-8"?>
<svg version="1.1" xmlns="http://www.w3.org/2000/svg" width="100" height="100">
<path d="M0 0 C1.05968994 0.00572021 2.11937988 0.01144043 3.21118164 0.01733398 C15.77465276 0.30350247 24.8838804 3.98032736 34.25 12.5 C34.87519531 13.04527344 35.50039062 13.59054687 36.14453125 14.15234375 C44.65666903 22.0339528 50.11388972 32.54880176 50.71875 44.171875 C50.75294526 46.19765486 50.7626697 48.22397117 50.75 50.25 C50.74427979 51.30968994 50.73855957 52.36937988 50.73266602 53.46118164 C50.44649753 66.02465276 46.76967264 75.1338804 38.25 84.5 C37.43208984 85.43779297 37.43208984 85.43779297 36.59765625 86.39453125 C28.7160472 94.90666903 18.20119824 100.36388972 6.578125 100.96875 C4.55234514 101.00294526 2.52602883 101.0126697 0.5 101 C-0.55968994 100.99427979 -1.61937988 100.98855957 -2.71118164 100.98266602 C-15.27465276 100.69649753 -24.3838804 97.01967264 -33.75 88.5 C-34.37519531 87.95472656 -35.00039063 87.40945312 -35.64453125 86.84765625 C-44.15666903 78.9660472 -49.61388972 68.45119824 -50.21875 56.828125 C-50.25294526 54.80234514 -50.2626697 52.77602883 -50.25 50.75 C-50.24427979 49.69031006 -50.23855957 48.63062012 -50.23266602 47.53881836 C-49.94649753 34.97534724 -46.26967264 25.8661196 -37.75 16.5 C-37.20472656 15.87480469 -36.65945312 15.24960938 -36.09765625 14.60546875 C-26.25497215 3.97536992 -14.17368884 -0.08863464 0 0 Z " fill="#345D9D" transform="translate(49.75,-0.5)"/>
<path d="M0 0 C3.0390625 -0.29296875 3.0390625 -0.29296875 6.625 -0.1875 C7.81351563 -0.16042969 9.00203125 -0.13335937 10.2265625 -0.10546875 C11.14179687 -0.07066406 12.05703125 -0.03585937 13 0 C12.35182422 6.00588187 10.74938604 11.49904849 8.9375 17.25 C8.38030887 19.02485139 7.8267558 20.80085017 7.27734375 22.578125 C7.03234131 23.35575195 6.78733887 24.13337891 6.53491211 24.93457031 C5.87464402 27.12843548 5.87464402 27.12843548 6 30 C7.98 29.67 9.96 29.34 12 29 C12 31.3125 12 31.3125 11 34 C9.2578125 34.61328125 9.2578125 34.61328125 7.125 35.125 C4.53987366 36.01969607 3.32261074 36.47498742 1.875 38.83081055 C1.09080502 41.11115357 0.51569178 43.33046185 0 45.6875 C-0.99 49.8021875 -0.99 49.8021875 -2 54 C7.24 54 16.48 54 26 54 C27 57 27 57 24 66 C9.48 66 -5.04 66 -20 66 C-18.71086891 59.55434455 -17.60517737 54.36126557 -15.375 48.375 C-14.92898437 47.16585937 -14.48296875 45.95671875 -14.0234375 44.7109375 C-13.68570313 43.81632812 -13.34796875 42.92171875 -13 42 C-16.465 42.495 -16.465 42.495 -20 43 C-19.8125 40.625 -19.8125 40.625 -19 38 C-16.11090151 36.40339294 -14.30941204 36 -11 36 C-10.89623047 35.41661865 -10.79246094 34.8332373 -10.68554688 34.23217773 C-9.39491605 27.35848858 -7.55861667 20.74223734 -5.5 14.0625 C-5.19191406 13.03576172 -4.88382813 12.00902344 -4.56640625 10.95117188 C-4.26605469 9.96826172 -3.96570313 8.98535156 -3.65625 7.97265625 C-3.25116211 6.64633179 -3.25116211 6.64633179 -2.83789062 5.29321289 C-2 3 -2 3 0 0 Z " fill="#F6F8FA" transform="translate(48,15)"/>
</svg>
