<?xml version="1.0" encoding="UTF-8"?>
<svg version="1.1" xmlns="http://www.w3.org/2000/svg" width="100" height="100">
<path d="M0 0 C1.02480469 -0.01611328 2.04960938 -0.03222656 3.10546875 -0.04882812 C16.60082946 -0.05740205 27.25726902 4.38996222 37 13.75 C40.47424742 17.38939651 42.88140467 20.82530935 45.125 25.3125 C45.66125 26.116875 46.1975 26.92125 46.75 27.75 C50.54966849 34.83120037 50.46197025 42.34723298 50.4375 50.1875 C50.45361328 51.21230469 50.46972656 52.23710938 50.48632812 53.29296875 C50.49490205 66.78832946 46.04753778 77.44476902 36.6875 87.1875 C33.04810349 90.66174742 29.61219065 93.06890467 25.125 95.3125 C24.320625 95.84875 23.51625 96.385 22.6875 96.9375 C15.60629963 100.73716849 8.09026702 100.64947025 0.25 100.625 C-0.77480469 100.64111328 -1.79960938 100.65722656 -2.85546875 100.67382812 C-16.35082946 100.68240205 -27.00726902 96.23503778 -36.75 86.875 C-40.22424742 83.23560349 -42.63140467 79.79969065 -44.875 75.3125 C-45.41125 74.508125 -45.9475 73.70375 -46.5 72.875 C-50.29966849 65.79379963 -50.21197025 58.27776702 -50.1875 50.4375 C-50.20361328 49.41269531 -50.21972656 48.38789062 -50.23632812 47.33203125 C-50.24490205 33.83667054 -45.79753778 23.18023098 -36.4375 13.4375 C-32.79810349 9.96325258 -29.36219065 7.55609533 -24.875 5.3125 C-23.6684375 4.508125 -23.6684375 4.508125 -22.4375 3.6875 C-15.35629963 -0.11216849 -7.84026702 -0.02447025 0 0 Z " fill="#EC0127" transform="translate(49.875,-0.3125)"/>
<path d="M0 0 C7.92266692 0.94572375 15.76492212 2.23739028 23.62646484 3.59277344 C25.18602196 3.86034608 26.74623381 4.1241354 28.30712891 4.38378906 C30.47749113 4.74559482 32.64508166 5.1210062 34.8125 5.5 C36.07707031 5.7165625 37.34164062 5.933125 38.64453125 6.15625 C45.75291933 7.94369101 51.00499922 12.8199992 56 18 C54.2997962 21.92871953 51.70953347 25.11598424 49.0625 28.4375 C48.57740967 29.05077148 48.09231934 29.66404297 47.5925293 30.29589844 C43.80041893 35.06186529 39.89638182 39.72566288 35.94042969 44.35595703 C31.8488267 49.14927439 27.90004275 54.04951594 24 59 C21.68552662 56.9065673 20.47352756 55.2008498 19.4140625 52.2734375 C19.12917969 51.50427002 18.84429687 50.73510254 18.55078125 49.94262695 C18.24527344 49.09531006 17.93976562 48.24799316 17.625 47.375 C16.93203658 45.50043204 16.23653501 43.62680119 15.5390625 41.75390625 C15.14750977 40.70219238 14.75595703 39.65047852 14.35253906 38.56689453 C12.80124228 34.47583929 11.19995116 30.406474 9.5859375 26.33984375 C9.29079254 25.595672 8.99564758 24.85150024 8.69155884 24.08477783 C7.49685075 21.07502542 6.30082477 18.06581646 5.09991455 15.05853271 C4.25118395 12.93209897 3.4065392 10.80408058 2.5625 8.67578125 C2.30350922 8.03084213 2.04451843 7.38590302 1.77767944 6.72142029 C0 2.22688193 0 2.22688193 0 0 Z " fill="#FEDEE8" transform="translate(24,23)"/>
<path d="M0 0 C5.52720077 0.65977847 11.0115211 1.44891787 16.5 2.375 C17.26812012 2.50366455 18.03624023 2.6323291 18.82763672 2.76489258 C26.57105352 4.07449933 34.2878711 5.51851475 42 7 C40.765625 8.5078125 40.765625 8.5078125 39 10 C37.046875 10.1796875 37.046875 10.1796875 34.75 9.875 C33.87601563 9.76027344 33.00203125 9.64554688 32.1015625 9.52734375 C27.14720868 8.6849788 22.23310501 7.67527613 17.3203125 6.62109375 C13.9076835 5.87742027 13.9076835 5.87742027 10 6 C10.47945068 6.38333496 10.95890137 6.76666992 11.45288086 7.16162109 C13.61743953 8.89568448 15.77750355 10.63525775 17.9375 12.375 C18.69224609 12.97828125 19.44699219 13.5815625 20.22460938 14.203125 C20.94326172 14.78320312 21.66191406 15.36328125 22.40234375 15.9609375 C23.06741943 16.49509277 23.73249512 17.02924805 24.41772461 17.57958984 C26 19 26 19 27 21 C26.34 21.66 25.68 22.32 25 23 C24.03578125 22.24074219 23.0715625 21.48148438 22.078125 20.69921875 C20.80210194 19.69528885 19.52605924 18.69138391 18.25 17.6875 C17.61578125 17.18798828 16.9815625 16.68847656 16.328125 16.17382812 C13.24355585 13.74794301 10.15493938 11.33433646 7 9 C7.3403125 9.85078125 7.680625 10.7015625 8.03125 11.578125 C8.78552667 13.46381668 9.53978436 15.34951598 10.29370117 17.23535156 C11.90793615 21.27257521 13.52486025 25.30870385 15.14453125 29.34375 C15.50417969 30.24061523 15.86382812 31.13748047 16.234375 32.06152344 C16.94592565 33.83588841 17.65815126 35.60998288 18.37109375 37.38378906 C18.69851562 38.20073242 19.0259375 39.01767578 19.36328125 39.859375 C19.65501221 40.58608398 19.94674316 41.31279297 20.24731445 42.06152344 C20.87956901 43.68984039 21.44762676 45.34288029 22 47 C23.63653302 45.36346698 23.45793638 43.34178841 23.75390625 41.08984375 C23.88603516 40.10048828 24.01816406 39.11113281 24.15429688 38.09179688 C24.28900391 37.05087891 24.42371094 36.00996094 24.5625 34.9375 C24.70107422 33.89271484 24.83964844 32.84792969 24.98242188 31.77148438 C25.32539267 29.18146356 25.66440631 26.59098531 26 24 C28.99072266 27.68994141 28.99072266 27.68994141 29.07421875 30.48046875 C28.88279297 31.82044922 28.88279297 31.82044922 28.6875 33.1875 C28.01054677 38.15910273 27.93141109 42.99300983 28 48 C28.39791748 47.51120361 28.79583496 47.02240723 29.20581055 46.51879883 C31.03020346 44.28103584 32.85881053 42.04675297 34.6875 39.8125 C35.31333984 39.04357422 35.93917969 38.27464844 36.58398438 37.48242188 C39.89097059 33.44824498 43.22496134 29.60180553 47 26 C47.64038086 27.80615234 47.64038086 27.80615234 48 30 C46.26552446 32.39508449 44.55640414 34.46554654 42.5625 36.625 C41.44652853 37.87506423 40.3319501 39.12637344 39.21875 40.37890625 C38.66832031 40.99266113 38.11789063 41.60641602 37.55078125 42.23876953 C35.46301817 44.60985311 33.5082276 47.07421375 31.5625 49.5625 C28.88729431 52.9525832 26.1494787 56.04736371 23 59 C19.95298187 52.30570092 17.16122732 45.5290228 14.453125 38.69140625 C14.03705994 37.64347397 13.62099487 36.59554169 13.19232178 35.51585388 C12.32075902 33.31865537 11.45018792 31.12106326 10.58056641 28.9230957 C9.2437799 25.54678996 7.90131958 22.17277555 6.55859375 18.79882812 C5.71059205 16.65899103 4.86292375 14.51902178 4.015625 12.37890625 C3.41104462 10.86182823 3.41104462 10.86182823 2.79425049 9.31410217 C2.42676697 8.38230637 2.05928345 7.45051056 1.68066406 6.49047852 C1.35519592 5.66935074 1.02972778 4.84822296 0.69439697 4.00221252 C0 2 0 2 0 0 Z " fill="#FED4E0" transform="translate(24,23)"/>
<path d="M0 0 C1.83141276 1.325081 3.63385763 2.67378648 5.41796875 4.0625 C8.05802156 6.09502851 8.05802156 6.09502851 11.23828125 8.0625 C14.75315923 10.4266433 17.3990632 12.61050447 20 16 C20.89762335 21.6373033 20.11568082 26.43841521 19 32 C18.81566406 33.0725 18.63132812 34.145 18.44140625 35.25 C18.02499589 37.52250305 17.5550853 39.75810209 17 42 C14.38655811 39.38655811 13.59937292 36.82097922 12.25 33.375 C11.99049561 32.71419434 11.73099121 32.05338867 11.46362305 31.37255859 C10.63454107 29.25132628 9.81547799 27.12649719 9 25 C8.59612061 23.9471582 8.59612061 23.9471582 8.18408203 22.87304688 C5.2916115 15.30245693 2.48060498 7.7174377 0 0 Z " fill="#E40D30" transform="translate(30,30)"/>
<path d="M0 0 C-1.65825547 3.9455044 -4.34679974 6.9345355 -7.125 10.125 C-11.38925011 15.08023613 -15.52048935 20.11099551 -19.5390625 25.26953125 C-20.02117188 25.84058594 -20.50328125 26.41164063 -21 27 C-21.33 27 -21.66 27 -22 27 C-22.33853295 18.83759432 -21.29901921 11.04927976 -20 3 C-17.41747107 2.49550598 -14.83411297 1.99625699 -12.25 1.5 C-11.52039062 1.35691406 -10.79078125 1.21382812 -10.0390625 1.06640625 C-6.60656468 0.41111121 -3.50830509 0 0 0 Z " fill="#E60A2F" transform="translate(73,45)"/>
<path d="M0 0 C6.93295289 0.68110706 13.71709235 1.78040181 20.5625 3.0625 C21.57119141 3.24876953 22.57988281 3.43503906 23.61914062 3.62695312 C26.07996816 4.08179803 28.54021974 4.53953118 31 5 C28.14982856 7.88955204 25.29079467 10.69599665 22.1875 13.3125 C21.58292969 13.82425781 20.97835937 14.33601563 20.35546875 14.86328125 C19.90816406 15.23839844 19.46085937 15.61351562 19 16 C12.48690571 11.24114887 6.07760874 6.30673557 0 1 C0 0.67 0 0.34 0 0 Z " fill="#E40C30" transform="translate(33,28)"/>
<path d="M0 0 C0.99 0.33 1.98 0.66 3 1 C4.19864128 3.52268786 5.22406621 5.9529028 6.1875 8.5625 C6.46013672 9.27341797 6.73277344 9.98433594 7.01367188 10.71679688 C7.68590073 12.4740267 8.34427492 14.23654518 9 16 C9.474375 15.175 9.94875 14.35 10.4375 13.5 C10.953125 12.675 11.46875 11.85 12 11 C12.33 11 12.66 11 13 11 C13 13.97 13 16.94 13 20 C13.66 20 14.32 20 15 20 C14.45773019 23.79588866 12.79872437 25.47211993 10 28 C7.46543575 22.4434553 5.06338145 16.83915265 2.75 11.1875 C2.47978027 10.54159912 2.20956055 9.89569824 1.93115234 9.23022461 C0.56958773 5.86834209 0 3.69336619 0 0 Z " fill="#FED9E2" transform="translate(37,54)"/>
<path d="M0 0 C3.32635882 1.52572656 4.95563002 2.93344504 7 6 C1.35199888 7.8417395 -4.08507728 8.54775239 -10 9 C-9.34 8.67 -8.68 8.34 -8 8 C-8 7.34 -8 6.68 -8 6 C-6.25 4.4921875 -6.25 4.4921875 -4 2.875 C-3.2575 2.33617187 -2.515 1.79734375 -1.75 1.2421875 C-1.1725 0.83226562 -0.595 0.42234375 0 0 Z " fill="#E2062A" transform="translate(67,35)"/>
<path d="M0 0 C2.64 0.33 5.28 0.66 8 1 C8 2.65 8 4.3 8 6 C7.01 6 6.02 6 5 6 C5.33 7.98 5.66 9.96 6 12 C5.34 12 4.68 12 4 12 C3.3291288 10.3767313 2.66342971 8.75132422 2 7.125 C1.62875 6.22007813 1.2575 5.31515625 0.875 4.3828125 C0 2 0 2 0 0 Z " fill="#FEE5EB" transform="translate(24,23)"/>
<path d="M0 0 C0.99 0.33 1.98 0.66 3 1 C2.67 1.66 2.34 2.32 2 3 C0.21484375 3.37890625 0.21484375 3.37890625 -2.0625 3.5625 C-2.866875 3.6346875 -3.67125 3.706875 -4.5 3.78125 C-5.7375 3.88953125 -5.7375 3.88953125 -7 4 C-8.52171519 4.18020311 -10.04266247 4.36709232 -11.5625 4.5625 C-12.696875 4.706875 -13.83125 4.85125 -15 5 C-15 3.68 -15 2.36 -15 1 C-13.25215171 0.63536268 -11.50159498 0.2836922 -9.75 -0.0625 C-8.28820313 -0.35833984 -8.28820313 -0.35833984 -6.796875 -0.66015625 C-4.0798375 -0.99029907 -2.55294574 -0.86734695 0 0 Z " fill="#FCD0DB" transform="translate(71,43)"/>
<path d="M0 0 C-1.44253657 3.36591866 -3.33264727 5.51047079 -6 8 C-6.99 7.67 -7.98 7.34 -9 7 C-9 5.02 -9 3.04 -9 1 C-5.846632 0.29925156 -3.27275026 0 0 0 Z " fill="#DF1C3A" transform="translate(73,45)"/>
<path d="M0 0 C1.31611677 0.95336021 2.62778961 1.91285774 3.9375 2.875 C4.66839844 3.40867188 5.39929687 3.94234375 6.15234375 4.4921875 C8 6 8 6 9 8 C7.68 7.67 6.36 7.34 5 7 C5.495 8.216875 5.99 9.43375 6.5 10.6875 C7.72479441 13.92486738 8.32803185 16.50099357 8 20 C5.76206424 16.64309635 4.34949662 13.1660716 2.875 9.4375 C2.59785156 8.75236328 2.32070313 8.06722656 2.03515625 7.36132812 C0 2.2533867 0 2.2533867 0 0 Z " fill="#D72548" transform="translate(30,30)"/>
<path d="M0 0 C-3.37559426 2.25039617 -3.97975643 2.17616009 -7.8125 1.6875 C-8.69292969 1.57921875 -9.57335938 1.4709375 -10.48046875 1.359375 C-13.3297363 0.95296785 -16.1693368 0.52143796 -19 0 C-19 -0.33 -19 -0.66 -19 -1 C-5 -3.33333333 -5 -3.33333333 0 0 Z " fill="#FDC5D2" transform="translate(66,31)"/>
<path d="M0 0 C1 4 1 4 -0.07421875 5.81640625 C-0.60660156 6.39261719 -1.13898437 6.96882813 -1.6875 7.5625 C-2.24050781 8.16320312 -2.79351562 8.76390625 -3.36328125 9.3828125 C-5.1252583 11.12376357 -6.92517734 12.64338518 -9 14 C-9.66 13.67 -10.32 13.34 -11 13 C-7.37 8.71 -3.74 4.42 0 0 Z " fill="#DD183D" transform="translate(58,69)"/>
<path d="M0 0 C-0.33 1.98 -0.66 3.96 -1 6 C-1.99 6 -2.98 6 -4 6 C-4.33 7.32 -4.66 8.64 -5 10 C-5.33 10 -5.66 10 -6 10 C-6.33 7.36 -6.66 4.72 -7 2 C-4.35261084 0.5393715 -3.10551666 0 0 0 Z " fill="#FEEFF2" transform="translate(57,42)"/>
<path d="M0 0 C0.33 0 0.66 0 1 0 C1 2.97 1 5.94 1 9 C1.66 9 2.32 9 3 9 C3 9.99 3 10.98 3 12 C0.61435923 11.42415568 -1.66682784 10.77772405 -4 10 C-3.67 9.34 -3.34 8.68 -3 8 C-2.34 8.33 -1.68 8.66 -1 9 C-1.020625 7.700625 -1.04125 6.40125 -1.0625 5.0625 C-1.08399454 3.70834367 -1.07148199 2.35243917 -1 1 C-0.67 0.67 -0.34 0.34 0 0 Z " fill="#FEF4FA" transform="translate(49,65)"/>
<path d="M0 0 C0.33 0 0.66 0 1 0 C1 3.63 1 7.26 1 11 C1.66 11.33 2.32 11.66 3 12 C1.68 13.32 0.36 14.64 -1 16 C-1.09688221 10.55306686 -1.12862175 5.36095333 0 0 Z " fill="#D52D4B" transform="translate(52,56)"/>
<path d="M0 0 C1.80030122 2.70045182 2.93377066 5.06677881 4.125 8.0625 C4.47820313 8.94035156 4.83140625 9.81820312 5.1953125 10.72265625 C6 13 6 13 6 15 C5.01 14.67 4.02 14.34 3 14 C3 12.68 3 11.36 3 10 C2.34 10 1.68 10 1 10 C0.67 6.7 0.34 3.4 0 0 Z " fill="#DA2443" transform="translate(32,45)"/>
<path d="M0 0 C9.41002278 0.96355353 9.41002278 0.96355353 14 2 C14 2.33 14 2.66 14 3 C11.36 3 8.72 3 6 3 C5.67 3.66 5.34 4.32 5 5 C3.35 3.35 1.7 1.7 0 0 Z " fill="#D32D4B" transform="translate(33,28)"/>
<path d="M0 0 C1.79378179 2.69067269 2.97313958 5.08578257 4.1875 8.0625 C4.55230469 8.94035156 4.91710937 9.81820312 5.29296875 10.72265625 C6 13 6 13 5 15 C4.34 14.34 3.68 13.68 3 13 C3 12.01 3 11.02 3 10 C2.34 10 1.68 10 1 10 C0.67 6.7 0.34 3.4 0 0 Z " fill="#D62642" transform="translate(24,25)"/>
<path d="M0 0 C-1 3 -1 3 -3 4 C-1.68 4.66 -0.36 5.32 1 6 C-2.3 6.33 -5.6 6.66 -9 7 C-8.34 6.67 -7.68 6.34 -7 6 C-7 5.34 -7 4.68 -7 4 C-2.52941176 0 -2.52941176 0 0 0 Z " fill="#D1304C" transform="translate(66,37)"/>
<path d="M0 0 C0.33 1.32 0.66 2.64 1 4 C0.195625 4.61875 -0.60875 5.2375 -1.4375 5.875 C-4.03874519 7.74164041 -4.03874519 7.74164041 -5 10 C-5.66 10 -6.32 10 -7 10 C-5.33248852 6.05860922 -2.77289351 3.2107188 0 0 Z " fill="#D91D42" transform="translate(76,47)"/>
<path d="M0 0 C3.36720387 1.39332574 4.9859524 2.9789286 7 6 C5.68 6 4.36 6 3 6 C2.896875 5.360625 2.79375 4.72125 2.6875 4.0625 C2.460625 3.381875 2.23375 2.70125 2 2 C1.01 1.67 0.02 1.34 -1 1 C-0.67 0.67 -0.34 0.34 0 0 Z " fill="#D92D46" transform="translate(67,35)"/>
<path d="M0 0 C4.875 1.75 4.875 1.75 6 4 C5.34 4.66 4.68 5.32 4 6 C2 4.6875 2 4.6875 0 3 C0 2.01 0 1.02 0 0 Z " fill="#FFD7E3" transform="translate(45,40)"/>
<path d="M0 0 C1.32 0 2.64 0 4 0 C4.33 1.98 4.66 3.96 5 6 C2.5 4.6875 2.5 4.6875 0 3 C0 2.01 0 1.02 0 0 Z " fill="#DB1439" transform="translate(39,31)"/>
<path d="M0 0 C2.375 0.3125 2.375 0.3125 5 1 C5.66 1.99 6.32 2.98 7 4 C6.67 4.99 6.34 5.98 6 7 C5.67 6.01 5.34 5.02 5 4 C3.68352881 3.30062468 2.34977849 2.63270867 1 2 C0.67 1.34 0.34 0.68 0 0 Z " fill="#E32A4B" transform="translate(71,33)"/>
<path d="M0 0 C1.98 0 3.96 0 6 0 C4.35 1.65 2.7 3.3 1 5 C0 1.125 0 1.125 0 0 Z " fill="#D4284A" transform="translate(58,33)"/>
<path d="M0 0 C2.31 0 4.62 0 7 0 C7 0.99 7 1.98 7 3 C4.0625 2.625 4.0625 2.625 1 2 C0.67 1.34 0.34 0.68 0 0 Z " fill="#FFEEF5" transform="translate(62,31)"/>
<path d="M0 0 C2.97 0 5.94 0 9 0 C8.67 1.32 8.34 2.64 8 4 C5.36 3.01 2.72 2.02 0 1 C0 0.67 0 0.34 0 0 Z " fill="#DB2045" transform="translate(62,29)"/>
</svg>
